<?xml version="1.0" standalone="no"?>
<!DOCTYPE svg PUBLIC "-//W3C//DTD SVG 20010904//EN"
 "http://www.w3.org/TR/2001/REC-SVG-20010904/DTD/svg10.dtd">
<svg version="1.0" xmlns="http://www.w3.org/2000/svg"
 width="225.000000pt" height="225.000000pt" viewBox="0 0 225.000000 225.000000"
 preserveAspectRatio="xMidYMid meet">
<metadata>
Created by potrace 1.11, written by Peter Selinger 2001-2013
</metadata>
<g transform="translate(0.000000,225.000000) scale(0.100000,-0.100000)"
fill="#000000" stroke="none">
<path d="M585 1681 c-524 -176 -530 -178 -533 -206 -4 -35 -2 -37 133 -81 61
-20 113 -39 118 -41 4 -2 -2 -18 -14 -34 -29 -41 -57 -127 -65 -196 -5 -45
-13 -65 -36 -89 -36 -39 -46 -90 -24 -132 9 -17 25 -36 35 -41 16 -9 17 -16
10 -58 -23 -123 -71 -220 -150 -307 -27 -30 -49 -58 -49 -64 0 -14 137 -82
164 -82 54 0 133 86 156 170 11 39 12 194 2 280 -6 47 -4 60 16 90 29 43 25
100 -10 137 -24 26 -25 42 -6 128 22 103 69 161 169 208 162 76 586 237 624
237 15 0 31 -9 41 -25 15 -23 15 -27 1 -49 -10 -15 -37 -31 -69 -41 -117 -38
-538 -209 -531 -215 4 -4 132 -49 283 -99 l275 -91 520 174 c286 95 528 177
538 181 13 5 17 16 15 38 l-3 30 -535 179 c-294 98 -537 178 -540 177 -3 0
-243 -80 -535 -178z"/>
<path d="M1485 1080 c-176 -60 -337 -109 -357 -109 -22 -1 -166 42 -353 105
-174 58 -318 104 -321 101 -3 -2 -7 -27 -11 -55 -5 -47 -3 -54 25 -86 57 -65
67 -153 23 -215 l-22 -30 48 -35 c63 -47 174 -89 304 -117 88 -19 135 -23 304
-23 169 0 216 4 304 23 190 40 328 109 368 183 15 27 19 63 21 201 2 92 0 167
-5 166 -4 0 -152 -50 -328 -109z"/>
</g>
</svg>
